<?xml version="1.0" encoding="UTF-8"?>
<!DOCTYPE svg PUBLIC "-//W3C//DTD SVG 1.1//EN" "http://www.w3.org/Graphics/SVG/1.1/DTD/svg11.dtd">
<svg xmlns="http://www.w3.org/2000/svg" version="1.1" width="512px" height="512px" style="shape-rendering:geometricPrecision; text-rendering:geometricPrecision; image-rendering:optimizeQuality; fill-rule:evenodd; clip-rule:evenodd" xmlns:xlink="http://www.w3.org/1999/xlink">
<g><path style="opacity:0.945" fill="#000000" d="M 116.5,52.5 C 119.518,52.3354 122.518,52.502 125.5,53C 151,78.5 176.5,104 202,129.5C 202.667,132.5 202.667,135.5 202,138.5C 198.833,141.667 195.667,144.833 192.5,148C 191.833,148.667 191.167,148.667 190.5,148C 162.667,120.167 134.833,92.3333 107,64.5C 106.333,63.8333 106.333,63.1667 107,62.5C 110.371,59.2975 113.538,55.9641 116.5,52.5 Z"/></g>
<g><path style="opacity:0.983" fill="#000000" d="M 94.5,74.5 C 123.763,102.095 152.429,130.429 180.5,159.5C 171.484,168.682 162.651,178.016 154,187.5C 145.141,201.122 144.474,215.122 152,229.5C 189.248,280.749 233.748,324.582 285.5,361C 300.284,366.643 313.95,364.643 326.5,355C 334.5,347 342.5,339 350.5,331C 351.167,330.333 351.833,330.333 352.5,331C 380.333,358.833 408.167,386.667 436,414.5C 414.378,442.574 385.544,458.074 349.5,461C 331.234,462.34 313.567,459.673 296.5,453C 268.368,439.776 242.034,423.776 217.5,405C 162.892,362.4 116.725,312.234 79,254.5C 71.2223,241.946 64.2223,228.946 58,215.5C 39.6669,160.496 51.8336,113.496 94.5,74.5 Z"/></g>
<g><path style="opacity:0.945" fill="#000000" d="M 372.5,308.5 C 375.518,308.335 378.518,308.502 381.5,309C 407,334.5 432.5,360 458,385.5C 458.667,388.5 458.667,391.5 458,394.5C 454.833,397.667 451.667,400.833 448.5,404C 447.833,404.667 447.167,404.667 446.5,404C 418.667,376.167 390.833,348.333 363,320.5C 362.333,319.833 362.333,319.167 363,318.5C 366.371,315.297 369.538,311.964 372.5,308.5 Z"/></g>
</svg>
